<?xml version="1.0" standalone="no"?>
<!DOCTYPE svg PUBLIC "-//W3C//DTD SVG 20010904//EN"
 "http://www.w3.org/TR/2001/REC-SVG-20010904/DTD/svg10.dtd">
<svg version="1.0" xmlns="http://www.w3.org/2000/svg"
 width="449.000000pt" height="449.000000pt" viewBox="0 0 449.000000 449.000000"
 preserveAspectRatio="xMidYMid meet">
<metadata>
Created by potrace 1.11, written by Peter Selinger 2001-2013
</metadata>
<g transform="translate(0.000000,449.000000) scale(0.100000,-0.100000)"
fill="#000000" stroke="none">
<path d="M2339 4236 c-2 -3 -56 -9 -119 -15 -124 -11 -240 -44 -379 -108 -42
-19 -85 -39 -97 -43 -35 -14 -163 -122 -274 -231 -120 -119 -192 -229 -222
-343 -11 -38 -22 -74 -24 -78 -14 -22 -22 -210 -12 -265 12 -67 14 -92 16
-187 2 -60 4 -67 17 -56 20 17 19 6 -1 -15 -11 -11 -13 -20 -7 -26 6 -6 7 -24
3 -44 -11 -48 3 -65 29 -34 11 13 23 31 26 41 6 18 35 33 35 18 0 -5 -6 -13
-13 -17 -6 -4 -24 -25 -40 -45 -27 -37 -28 -64 0 -81 21 -13 15 -26 -9 -20
-22 4 -22 3 2 -11 33 -20 80 -21 80 -1 0 8 -4 15 -10 15 -5 0 -10 5 -10 10 0
14 19 12 65 -7 39 -16 41 -18 43 -66 1 -28 8 -57 15 -66 6 -8 -1 -5 -17 7 -16
12 -32 22 -36 22 -4 0 1 -29 10 -64 10 -35 16 -66 14 -69 -4 -4 57 -226 73
-267 3 -8 5 -22 4 -32 -1 -9 2 -18 6 -21 4 -3 8 -37 7 -76 -1 -39 2 -68 7 -66
8 6 49 -96 49 -123 0 -10 4 -22 9 -28 5 -5 11 -18 14 -29 4 -16 5 -16 6 5 1
24 2 24 21 -8 11 -18 25 -30 30 -27 6 4 10 -7 10 -24 0 -16 5 -33 10 -36 6 -3
10 -11 10 -16 0 -6 -5 -7 -12 -3 -8 5 -9 2 -4 -12 5 -10 11 -28 14 -39 3 -11
20 -38 39 -61 18 -23 33 -51 33 -63 0 -11 4 -21 8 -21 12 0 44 -59 38 -69 -8
-13 4 -42 15 -35 5 3 6 -1 4 -8 -3 -8 13 -31 35 -53 22 -21 40 -34 40 -27 0 7
4 12 10 12 5 0 7 -7 4 -15 -4 -9 0 -15 10 -15 9 0 25 -9 35 -19 16 -16 22 -17
30 -7 6 7 8 16 4 19 -15 16 11 5 34 -13 14 -11 21 -20 15 -20 -6 0 -14 5 -17
10 -10 15 -28 12 -22 -4 3 -8 1 -17 -6 -20 -7 -4 -2 -4 10 -2 15 2 23 -2 25
-13 3 -17 38 -22 49 -7 4 4 9 3 13 -3 4 -6 -4 -13 -19 -17 -14 -3 -25 -10 -25
-15 0 -6 8 -5 19 1 21 11 51 4 51 -12 0 -5 5 -6 10 -3 14 9 12 -8 -3 -24 -10
-11 -8 -12 9 -3 15 8 27 7 47 -3 14 -7 28 -11 31 -7 3 3 6 -3 6 -14 1 -19 1
-19 15 0 8 11 18 17 21 13 4 -4 1 -13 -6 -22 -8 -9 -9 -15 -2 -15 6 0 16 8 21
18 7 11 11 12 11 4 0 -14 24 -42 35 -42 3 0 3 5 -1 12 -4 6 -3 8 3 5 6 -4 18
2 27 12 13 15 14 24 6 46 -9 25 -9 26 5 15 8 -7 15 -18 15 -25 0 -7 7 -16 16
-19 8 -3 12 -2 9 4 -3 6 -2 10 4 10 14 0 21 -14 13 -27 -4 -7 -20 -10 -35 -9
-15 2 -30 -1 -33 -5 -3 -5 0 -9 6 -9 6 0 9 -4 5 -10 -3 -5 12 -8 40 -5 47 4
54 -2 33 -24 -10 -11 -10 -12 -1 -7 7 4 26 0 43 -9 16 -8 30 -13 30 -9 0 3 11
-1 24 -9 17 -12 26 -13 35 -4 6 6 11 7 11 1 0 -5 12 -9 28 -8 15 1 32 -2 37
-6 6 -5 21 -10 35 -12 16 -2 24 -9 22 -18 -2 -8 -5 -24 -7 -35 -1 -11 -5 -27
-8 -35 -4 -8 -6 -22 -5 -30 3 -39 -4 -59 -21 -65 -20 -6 -32 -31 -36 -70 -2
-11 -8 -19 -15 -17 -7 2 -10 -3 -7 -12 4 -9 -1 -22 -9 -31 -14 -13 -14 -16 0
-21 9 -3 22 -4 29 -1 15 6 15 -26 -1 -64 -10 -25 -33 -42 -58 -44 -6 0 -18 -5
-25 -11 -19 -15 -70 -24 -62 -11 4 6 0 8 -11 4 -10 -4 -23 -4 -29 0 -6 4 -25
8 -41 10 -17 2 -32 7 -35 12 -7 10 -33 18 -86 26 -37 5 -123 40 -135 55 -3 3
-25 20 -50 38 -70 51 -197 179 -257 260 -82 111 -104 157 -102 216 1 28 -4 87
-9 131 -6 44 -14 115 -18 158 -4 49 -11 77 -18 77 -42 0 -137 -25 -172 -45
-43 -25 -61 -56 -68 -115 -2 -19 -4 -38 -5 -41 0 -4 -8 -10 -17 -13 -15 -6
-15 -4 -3 11 7 10 -12 -9 -42 -41 -30 -33 -73 -89 -97 -125 -38 -58 -43 -71
-38 -106 5 -36 4 -38 -6 -15 -7 14 -13 27 -14 29 -7 10 -338 -168 -584 -314
-85 -51 -186 -109 -225 -130 -152 -82 -182 -100 -237 -148 -32 -27 -55 -53
-52 -58 3 -5 -2 -6 -10 -3 -9 3 -16 1 -16 -5 0 -6 5 -11 10 -11 6 0 10 -5 10
-11 0 -8 -4 -8 -15 1 -16 13 -22 9 -62 -43 -19 -25 -21 -41 -22 -177 l-2 -150
2196 0 c1897 0 2195 2 2195 14 0 8 -13 74 -30 147 -27 119 -35 140 -82 213
-48 73 -179 231 -218 264 -46 37 -216 131 -360 198 -167 76 -200 91 -434 187
l-130 52 -44 65 c-24 36 -60 82 -79 102 l-36 37 7 73 c4 42 16 93 30 123 13
27 27 60 30 72 4 11 13 27 21 33 8 7 15 23 15 35 0 12 7 28 15 35 8 7 17 27
21 46 3 19 10 34 15 34 5 0 9 11 9 24 0 13 8 44 18 68 29 68 48 190 51 345 1
26 8 36 41 54 53 30 71 59 75 122 7 95 26 301 32 347 9 73 -15 204 -42 230
-25 24 -55 21 -87 -8 -22 -18 -23 -10 -4 26 17 34 28 106 18 116 -4 4 -7 27
-8 49 -1 23 -4 85 -8 137 -3 52 -9 131 -11 175 -7 102 -13 140 -31 189 -21 54
-92 151 -169 231 -36 37 -65 71 -65 77 0 5 -11 19 -25 30 -14 11 -25 26 -25
34 0 7 -15 20 -34 28 -19 8 -52 32 -75 55 -24 24 -56 44 -80 51 -23 6 -41 13
-41 16 0 3 10 3 23 -1 19 -5 20 -4 4 5 -9 6 -21 9 -25 6 -12 -7 -85 19 -167
59 -63 30 -154 53 -166 41z m-869 -511 c-7 -9 -15 -13 -19 -10 -3 3 1 10 9 15
21 14 24 12 10 -5z m-46 -89 c-3 -8 -13 -17 -22 -21 -13 -5 -13 -2 3 15 21 24
26 25 19 6z m1102 -95 c11 9 14 8 15 -7 0 -12 3 -14 6 -6 4 10 8 10 19 1 11
-9 14 -9 14 0 0 7 5 9 10 6 6 -4 8 -11 5 -16 -8 -13 17 -37 33 -31 7 2 20 -4
28 -14 9 -11 13 -13 9 -6 -11 21 9 13 23 -9 13 -20 12 -21 -12 -15 -15 4 -26
2 -26 -4 0 -5 11 -12 25 -16 20 -5 24 -11 19 -30 -5 -21 -3 -24 20 -24 23 0
26 -4 26 -32 0 -18 3 -43 6 -55 5 -17 2 -23 -9 -23 -11 0 -15 9 -13 35 2 19
-1 35 -7 35 -5 0 -4 7 3 15 10 12 10 15 -3 15 -21 0 -32 -19 -18 -33 17 -17
13 -67 -6 -74 -9 -4 -19 -1 -21 5 -7 21 -20 13 -15 -8 3 -11 1 -26 -5 -33 -12
-14 -4 -31 18 -40 12 -4 11 -6 -2 -6 -27 -1 -22 -18 7 -25 14 -4 25 -12 25
-19 0 -20 38 -47 57 -40 15 5 15 3 -2 -11 -17 -15 -17 -17 -2 -12 10 3 17 0
17 -9 0 -7 5 -17 12 -21 7 -5 8 -2 3 7 -5 8 -4 11 0 6 12 -11 13 -59 0 -63 -5
-2 -26 -5 -45 -7 -19 -2 -50 -10 -68 -19 -20 -10 -30 -12 -26 -5 3 7 -4 1 -15
-12 -16 -18 -21 -20 -21 -7 0 21 -9 20 -27 -1 -10 -13 -16 -15 -19 -5 -8 18
-24 4 -24 -20 0 -21 0 -21 -22 -2 l-21 19 18 -30 c10 -16 12 -24 5 -17 -20 17
-35 15 -20 -3 13 -16 11 -18 -35 -16 -16 0 -24 -2 -17 -5 6 -3 12 -10 12 -15
0 -6 -4 -7 -10 -4 -5 3 -15 3 -22 -1 -8 -5 -6 -10 8 -15 16 -6 14 -8 -9 -8
-32 -1 -51 -16 -61 -48 -12 -37 -65 -47 -136 -27 -61 17 -81 34 -35 29 14 -2
24 0 22 3 -2 4 -7 16 -11 26 -6 19 -7 19 -21 0 -8 -11 -15 -14 -15 -6 0 24 -2
27 -15 35 -9 5 -22 0 -34 -12 -20 -20 -20 -21 -2 -30 10 -6 21 -7 25 -4 3 3 6
1 6 -7 0 -9 -9 -11 -31 -6 -17 3 -42 6 -55 6 -13 0 -24 5 -24 10 0 6 11 8 25
4 31 -8 31 -4 -1 43 -26 38 -44 59 -29 34 6 -11 4 -13 -10 -7 -18 6 -18 6 1
-15 l19 -23 -35 21 c-45 26 -106 38 -116 22 -4 -7 -3 -9 4 -5 6 3 13 2 17 -4
4 -6 -9 -10 -34 -10 -22 0 -42 -5 -44 -12 -4 -8 -6 -7 -6 4 -1 19 -41 13 -41
-6 0 -6 -4 -4 -9 4 -6 8 -7 18 -4 23 3 5 -5 4 -17 -3 -18 -9 -21 -9 -15 0 5 8
3 11 -6 8 -8 -3 -13 -10 -12 -16 2 -6 -3 -9 -10 -6 -16 6 -47 -27 -75 -78 -15
-26 -17 -38 -9 -41 6 -2 -19 -13 -57 -25 -65 -21 -70 -21 -82 -4 -7 9 -14 25
-14 34 0 22 52 162 62 166 4 2 8 11 8 21 0 9 6 23 13 30 10 11 9 12 -3 6 -12
-7 -13 -6 -4 6 6 8 12 21 12 29 1 8 3 27 5 42 2 15 1 27 -2 26 -20 -2 -31 3
-26 12 4 6 11 7 17 4 6 -4 5 3 -2 16 -8 15 -8 20 -1 16 7 -5 11 1 11 15 0 22
0 22 -22 3 -18 -15 -20 -15 -9 -2 7 10 11 23 8 30 -2 7 0 21 5 31 6 12 5 17
-4 17 -9 0 -9 3 0 12 16 16 15 28 0 24 -7 -1 -10 -1 -5 1 4 3 7 8 7 13 0 4 29
36 64 71 36 35 62 67 59 73 -3 5 -2 6 4 3 5 -3 17 3 27 14 9 12 24 18 32 15 8
-3 14 -2 14 2 0 4 24 6 52 6 29 -1 76 3 103 8 141 26 218 36 231 31 8 -3 22 1
31 8 10 8 14 9 10 2 -4 -6 -3 -14 3 -18 5 -3 10 1 10 9 0 9 8 16 18 16 10 0
23 5 30 12 15 15 54 18 70 5 9 -7 11 -6 6 8 -5 13 -4 16 5 11 6 -4 17 -4 24 1
14 11 44 16 110 17 34 1 47 5 48 16 1 10 3 9 6 -3 4 -14 8 -16 19 -6z m104
-31 c0 -5 -2 -10 -4 -10 -3 0 -8 5 -11 10 -3 6 -1 10 4 10 6 0 11 -4 11 -10z
m41 -303 c-10 -9 -11 -8 -5 6 3 10 9 15 12 12 3 -3 0 -11 -7 -18z m49 -52 c0
-8 -2 -15 -4 -15 -2 0 -6 7 -10 15 -3 8 -1 15 4 15 6 0 10 -7 10 -15z m477
-237 c-2 -7 0 -26 4 -41 8 -30 3 -57 -12 -57 -5 0 -9 15 -9 34 0 19 -5 38 -10
41 -8 5 -7 11 1 21 14 17 32 18 26 2z m-37 -43 c0 -8 -2 -15 -4 -15 -2 0 -6 7
-10 15 -3 8 -1 15 4 15 6 0 10 -7 10 -15z m-140 -35 c11 -11 20 -26 20 -32 0
-7 -7 -2 -16 10 -9 13 -26 27 -38 32 -17 7 -17 9 -3 9 9 1 26 -8 37 -19z m159
-32 c1 -5 -3 -8 -9 -8 -5 0 -10 12 -9 28 0 24 1 25 9 7 5 -11 9 -23 9 -27z
m-1424 12 c-3 -5 -11 -10 -16 -10 -6 0 -7 5 -4 10 3 6 11 10 16 10 6 0 7 -4 4
-10z m-425 -35 c0 -8 -4 -15 -10 -15 -5 0 -7 7 -4 15 4 8 8 15 10 15 2 0 4 -7
4 -15z m1358 -9 c-16 -8 -34 -18 -40 -22 -7 -4 -4 2 6 14 11 12 29 22 40 22
18 0 17 -2 -6 -14z m359 -8 c-3 -8 -6 -5 -6 6 -1 11 2 17 5 13 3 -3 4 -12 1
-19z m-1302 -18 c-10 -11 -28 -20 -39 -20 -17 1 -14 5 14 20 45 24 47 24 25 0z
m49 11 c3 -5 -3 -11 -13 -14 -14 -3 -18 -1 -14 9 6 16 19 18 27 5z m916 -11
c0 -5 -4 -10 -10 -10 -5 0 -10 5 -10 10 0 6 5 10 10 10 6 0 10 -4 10 -10z
m110 -35 c-20 -24 -31 -18 -18 10 8 17 15 22 21 16 7 -7 6 -15 -3 -26z m-1140
21 c0 -2 -7 -7 -16 -10 -8 -3 -12 -2 -9 4 6 10 25 14 25 6z m487 -19 c47 -25
61 -77 45 -169 -7 -38 -16 -77 -21 -87 -23 -42 -277 -98 -395 -86 -105 10
-142 28 -160 78 -16 45 -28 117 -20 117 11 0 34 -29 26 -33 -4 -2 0 -2 8 0 8
2 26 -10 41 -28 21 -25 33 -32 66 -33 23 0 39 -5 36 -9 -3 -5 5 -4 17 3 16 9
29 9 45 2 49 -23 268 68 294 122 10 22 11 30 1 36 -7 4 -9 13 -5 20 11 18 38
-36 30 -60 -4 -12 -2 -20 5 -20 15 0 4 83 -16 122 -12 22 -22 27 -66 32 -102
11 -112 14 -38 12 46 -2 88 -9 107 -19z m893 -58 c0 -47 -4 -78 -9 -74 -5 3
-13 0 -17 -6 -11 -19 -108 -57 -187 -73 -44 -9 -119 -15 -179 -15 -72 1 -92 4
-68 9 19 4 30 8 24 9 -7 0 -14 8 -18 16 -5 13 -1 13 29 1 44 -19 45 -8 2 22
-28 21 -29 23 -7 17 14 -4 31 -13 39 -19 11 -8 13 -8 8 1 -6 9 1 11 25 7 18
-3 53 -7 77 -9 24 -2 48 -8 54 -14 14 -14 30 -14 21 0 -4 8 1 9 15 4 14 -4 47
2 87 16 78 28 94 51 94 134 0 30 2 55 5 55 3 0 5 -36 5 -81z m-390 46 c7 -14
18 -25 24 -24 28 3 47 -2 41 -11 -4 -6 -12 -9 -18 -8 -16 4 -100 -24 -112 -37
-5 -6 -9 -8 -8 -6 2 2 -5 10 -15 17 -15 11 -11 14 31 24 60 16 68 27 14 21
l-41 -3 29 25 c37 33 39 33 55 2z m-795 1 c-11 -8 -24 -12 -29 -8 -5 3 -1 9
10 13 31 12 39 10 19 -5z m-115 -23 c-18 -15 -40 -44 -49 -66 l-16 -39 -29 27
c-30 28 -48 27 -25 -2 12 -15 12 -16 -3 -10 -9 3 -19 1 -22 -6 -2 -7 -2 4 1
23 3 19 12 42 20 50 16 18 98 48 131 49 22 1 22 0 -8 -26z m-279 -32 c1 -3 3
-26 5 -50 5 -53 15 -67 54 -75 25 -5 35 -16 62 -72 17 -36 41 -72 52 -79 12
-8 53 -17 91 -21 39 -4 77 -13 85 -20 25 -21 177 -7 287 27 82 26 101 55 143
225 7 28 18 44 35 52 30 14 99 16 91 3 -3 -4 3 -25 14 -45 15 -31 52 -138 67
-196 11 -41 11 -65 0 -72 -9 -6 -9 -8 1 -8 7 0 12 -13 12 -29 0 -16 7 -37 16
-45 8 -9 12 -16 8 -16 -5 0 -3 -5 4 -12 18 -18 14 -74 -8 -110 -11 -18 -20
-41 -20 -50 0 -22 10 -19 -83 -24 -70 -4 -81 -2 -110 20 -36 26 -105 51 -115
41 -9 -8 18 -25 43 -25 19 -1 19 -1 2 -11 -9 -6 -15 -14 -12 -19 3 -4 -5 -6
-17 -2 -16 4 -19 2 -13 -8 5 -9 4 -11 -4 -6 -6 4 -24 -2 -40 -13 -37 -26 -51
-27 -20 -2 24 19 24 19 -37 7 -35 -8 -68 -9 -77 -5 -9 6 -19 4 -27 -6 -6 -7
-18 -11 -26 -8 -12 5 -11 10 8 32 12 14 16 20 8 14 -29 -26 -30 -12 0 25 45
56 72 112 53 112 -15 0 -35 -19 -103 -99 -80 -95 -95 -157 -54 -223 45 -71 79
-168 53 -153 -14 9 -11 -29 3 -43 7 -7 13 -20 13 -30 0 -10 8 -17 20 -17 12 0
20 7 20 16 0 9 11 26 25 38 20 17 21 20 5 14 -19 -7 -19 -6 -3 19 15 23 16 27
2 32 -10 4 -14 13 -10 22 3 8 2 12 -4 9 -6 -3 -10 -1 -10 4 0 6 6 11 13 11 9
0 9 2 -1 9 -9 5 -11 17 -6 36 5 22 4 26 -6 20 -9 -6 -11 -4 -5 5 4 7 2 16 -6
21 -12 7 -12 9 0 9 13 0 108 -66 140 -97 10 -11 16 -11 27 -2 11 9 14 9 14 0
0 -7 5 -9 10 -6 17 11 31 -5 17 -20 -8 -9 -16 -10 -25 -3 -9 8 -11 7 -6 -6 8
-20 18 -20 34 -1 17 20 31 19 24 -2 -5 -14 -4 -15 4 -4 9 12 13 12 27 -2 20
-20 27 -21 43 -5 9 9 16 7 31 -6 13 -11 21 -14 26 -6 3 5 11 8 16 4 25 -15
101 -18 187 -6 34 5 65 5 68 0 3 -4 -4 -8 -15 -8 -28 0 -37 -20 -12 -27 12 -3
21 -9 21 -14 0 -5 -7 -6 -15 -3 -8 4 -15 1 -15 -6 0 -6 4 -9 9 -5 5 3 13 0 16
-5 4 -7 20 -8 38 -5 23 5 29 4 22 -4 -18 -19 -135 -37 -257 -40 -41 -1 -46 -3
-41 -21 3 -11 10 -20 17 -21 6 0 22 -2 36 -4 14 -1 31 3 39 9 12 9 13 6 8 -21
-5 -28 -4 -31 11 -26 9 4 22 14 29 22 11 14 12 12 13 -13 0 -28 1 -28 18 -13
24 22 39 21 52 -2 13 -24 14 -63 1 -43 -6 11 -13 8 -29 -12 -11 -15 -26 -25
-34 -24 -9 2 -12 -7 -11 -27 2 -29 1 -29 -13 -10 -9 11 -20 19 -25 17 -6 -1
-8 2 -4 8 11 18 -3 11 -26 -12 -12 -13 -19 -17 -15 -10 4 6 2 12 -4 12 -6 0
-18 7 -27 15 -8 9 -18 13 -21 10 -3 -3 0 -11 6 -17 16 -16 15 -45 -2 -45 -8 0
-12 6 -9 12 2 7 -3 15 -11 18 -11 4 -13 1 -9 -11 5 -14 3 -15 -8 -4 -7 6 -28
12 -47 12 -19 0 -31 4 -27 10 3 6 -1 7 -9 4 -12 -4 -16 0 -17 17 0 22 -1 22
-8 5 -5 -14 -10 -16 -15 -8 -4 7 -13 9 -19 5 -7 -4 -6 1 2 10 8 10 11 20 7 24
-3 3 -6 1 -6 -5 0 -9 -5 -9 -19 0 -11 7 -18 16 -15 20 3 4 -3 5 -12 1 -11 -4
-15 -2 -11 4 4 6 1 13 -7 16 -8 3 -17 -1 -20 -10 -4 -9 -9 -13 -13 -10 -3 4 2
19 12 34 l18 28 -29 -27 -29 -27 -2 27 c-2 15 -3 38 -4 51 -1 17 -4 20 -12 12
-6 -6 -15 -11 -19 -11 -11 0 -6 23 7 32 22 16 -6 19 -30 4 -23 -15 -25 -20
-13 -34 11 -15 11 -16 -4 -4 -13 10 -17 10 -21 0 -3 -7 -6 -8 -6 -2 -1 6 11
23 25 38 15 14 21 26 14 26 -7 0 -26 -14 -42 -32 -24 -27 -28 -29 -28 -11 0
27 -10 35 -27 22 -10 -9 -13 -7 -13 11 0 19 -2 20 -15 10 -11 -9 -15 -9 -15
-1 0 7 -4 9 -10 6 -5 -3 -10 1 -10 9 0 10 -6 13 -15 10 -9 -4 -15 0 -15 10 0
9 -4 16 -9 16 -5 0 -7 -8 -4 -18 2 -11 -4 -25 -14 -33 -16 -12 -17 -12 -8 1
14 21 12 72 -3 77 -8 3 -10 -1 -5 -13 5 -14 2 -13 -15 4 -12 12 -26 22 -32 22
-5 0 -7 7 -4 15 4 8 1 15 -6 15 -6 0 -9 4 -6 9 3 5 -8 23 -24 41 -16 18 -28
36 -25 40 3 5 1 20 -5 35 -8 20 -7 31 1 41 10 12 9 13 -5 8 -9 -3 -16 -11 -16
-17 0 -6 -3 -8 -6 -5 -3 4 0 16 6 28 9 17 9 21 0 15 -9 -5 -10 -1 -5 16 4 16
3 19 -3 11 -6 -9 -13 -1 -25 30 -10 24 -17 53 -17 63 0 17 -2 18 -11 5 -9 -12
-10 -11 -6 7 3 12 1 23 -4 25 -5 2 -11 17 -13 33 -2 17 -11 55 -20 85 -25 86
-45 193 -50 267 -2 37 -9 81 -15 96 -17 43 -14 88 4 81 8 -4 15 -9 16 -13z
m64 9 c-3 -5 -11 -10 -16 -10 -6 0 -7 5 -4 10 3 6 11 10 16 10 6 0 7 -4 4 -10z
m471 -17 l26 -16 -34 -12 c-18 -6 -34 -10 -36 -9 -4 2 9 54 14 54 3 0 16 -8
30 -17z m711 -5 c18 3 24 1 19 -7 -5 -7 -27 -10 -56 -9 -27 2 -46 6 -42 10 10
9 47 15 50 7 1 -3 14 -4 29 -1z m-857 -76 c0 -7 4 -11 9 -7 5 3 12 1 15 -4 3
-4 23 -6 45 -4 24 3 42 0 46 -8 5 -7 4 -10 -3 -5 -6 3 -14 1 -17 -4 -9 -15
-51 -30 -95 -36 -19 -2 -44 -7 -55 -10 -11 -4 -17 -3 -12 2 4 4 -6 13 -23 20
-44 19 -41 71 4 55 23 -9 66 3 66 18 0 5 -14 12 -31 16 -29 7 -30 8 -13 26 17
18 18 18 40 -13 13 -18 24 -38 24 -46z m-100 65 c0 -2 -10 -12 -21 -23 -22
-19 -22 -19 -10 4 10 18 31 31 31 19z m183 -43 c-2 -6 -9 -11 -16 -11 -7 0
-20 -4 -29 -8 -13 -5 -18 -2 -18 11 0 15 8 19 34 19 20 0 32 -4 29 -11z m187
7 c0 -5 -6 -11 -13 -14 -8 -3 -14 1 -14 9 0 8 6 14 14 14 7 0 13 -4 13 -9z
m744 -29 c2 -4 -11 -6 -30 -4 -19 2 -34 6 -34 8 0 8 59 4 64 -4z m-341 -61
c-4 -7 -34 21 -45 43 -7 14 -2 11 18 -9 16 -16 28 -32 27 -34z m22 21 c-3 -3
-11 0 -18 7 -9 10 -8 11 6 5 10 -3 15 -9 12 -12z m425 -7 c0 -12 -62 -34 -111
-39 -65 -7 -57 -2 36 23 39 10 71 19 73 20 1 0 2 -1 2 -4z m14 -90 c9 -10 16
-12 16 -5 0 7 7 5 16 -5 14 -13 14 -18 2 -32 -11 -14 -11 -16 4 -11 14 6 15 2
7 -25 -5 -18 -9 -58 -9 -89 0 -31 -5 -60 -11 -64 -7 -4 -9 -22 -5 -48 4 -29 3
-37 -4 -26 -6 9 -10 10 -10 3 0 -6 4 -14 9 -17 19 -12 30 -147 16 -215 -5 -28
-22 -42 -41 -34 -9 3 -11 -3 -8 -19 5 -21 4 -21 -6 -5 -7 10 -9 21 -6 24 3 4
2 11 -3 17 -5 6 -4 22 2 36 12 30 19 117 12 146 -9 38 -90 109 -174 153 -45
23 -85 49 -88 57 -3 8 -10 11 -16 7 -6 -4 -8 0 -4 9 4 11 -1 18 -14 21 -10 3
-19 13 -19 22 0 9 -4 13 -10 10 -5 -3 -10 3 -10 14 0 12 -4 21 -9 21 -11 0
-21 37 -15 53 3 8 59 13 183 15 154 3 181 1 195 -13z m-336 -221 c10 -35 -4
-55 -49 -69 -13 -4 -35 -14 -48 -22 l-25 -16 22 27 c11 15 19 33 16 41 -3 7 0
16 5 20 6 3 9 11 5 16 -3 5 2 21 10 34 14 21 19 23 35 13 10 -6 23 -26 29 -44z
m-396 -162 c4 -12 -1 -18 -13 -18 -19 0 -25 16 -12 29 11 12 20 8 25 -11z
m-57 -92 c8 0 15 7 15 15 0 18 12 19 28 3 9 -9 15 -9 24 0 14 14 48 16 48 4 0
-8 86 -7 238 4 39 2 72 2 72 0 0 -3 -36 -13 -81 -22 -75 -17 -80 -19 -76 -41
3 -19 2 -21 -9 -12 -10 8 -14 8 -14 0 0 -6 -7 -11 -15 -11 -8 0 -15 -5 -15
-10 0 -10 46 -8 138 6 27 4 32 2 32 -16 0 -28 14 -25 28 5 17 37 32 30 32 -14
0 -32 -6 -46 -32 -70 -18 -17 -43 -31 -55 -31 -12 0 -25 -5 -28 -11 -4 -6 -27
-9 -51 -8 -24 2 -46 0 -50 -4 -11 -11 -94 -8 -94 3 0 6 -10 8 -24 4 -17 -4
-27 -1 -34 11 -8 16 -11 15 -26 -6 l-17 -24 -19 23 c-10 12 -24 22 -32 22 -16
0 -44 31 -61 66 -14 32 4 47 48 39 17 -2 37 0 45 5 13 8 12 10 -5 11 -11 1
-28 1 -37 0 -10 -1 -18 3 -18 8 0 6 8 11 18 12 11 1 8 4 -8 8 -18 5 -27 3 -31
-8 -4 -11 -8 -11 -13 -3 -4 7 -13 12 -19 12 -7 0 -6 -4 3 -10 11 -7 2 -10 -32
-10 -57 0 -78 7 -71 26 3 8 9 11 15 8 5 -3 20 4 34 17 15 14 24 17 24 10 0
-11 3 -11 15 -1 8 7 25 10 39 6 14 -3 28 -1 32 5 5 8 10 6 16 -5 5 -9 16 -16
23 -16z m-605 -4 c0 -3 -4 -8 -10 -11 -5 -3 -10 -1 -10 4 0 6 5 11 10 11 6 0
10 -2 10 -4z m1350 -144 c0 -5 -7 -9 -15 -9 -8 0 -15 4 -15 9 0 4 7 8 15 8 8
0 15 -4 15 -8z m-1255 -123 c-4 -12 -3 -19 1 -16 5 3 10 -6 11 -20 1 -18 -2
-22 -10 -14 -14 14 -18 71 -5 71 5 0 6 -10 3 -21z m42 -71 c-3 -8 -6 -5 -6 6
-1 11 2 17 5 13 3 -3 4 -12 1 -19z m982 -21 c8 14 9 7 4 -27 -6 -40 -5 -44 9
-32 32 26 32 -25 1 -56 -14 -14 -18 -6 -14 26 2 10 -2 10 -18 0 -22 -14 -30
-34 -8 -22 6 4 8 3 4 -1 -12 -13 -57 -17 -57 -5 0 5 5 9 11 8 6 -2 14 4 16 12
4 13 3 13 -6 0 -10 -13 -11 -13 -11 0 0 13 -2 13 -10 0 -7 -12 -12 -12 -28 4
-15 13 -21 14 -24 4 -3 -7 -11 2 -19 20 -7 18 -17 32 -21 32 -5 0 -8 5 -8 12
0 7 6 6 18 -4 20 -17 48 -17 45 0 -2 7 9 12 30 12 17 0 39 5 47 10 10 6 11 10
3 10 -7 0 -13 6 -13 13 1 6 9 2 20 -11 17 -21 19 -21 29 -5z m-940 -72 c0 -5
-6 1 -14 15 -8 14 -14 30 -14 35 0 6 6 -1 14 -15 8 -14 14 -29 14 -35z m988
28 c-3 -3 -11 -2 -17 2 -9 6 -9 10 1 16 14 8 27 -7 16 -18z m-158 -82 c8 -5 9
-11 3 -15 -5 -3 -15 1 -22 9 -14 16 -3 20 19 6z m-699 -81 c13 -8 13 -10 -2
-10 -9 0 -20 5 -23 10 -8 13 5 13 25 0z m396 -26 c4 -21 2 -40 -4 -46 -7 -7
-10 -2 -7 17 1 17 -5 35 -16 46 -19 19 -19 19 1 19 14 0 21 -9 26 -36z m231
14 c-3 -8 -6 -5 -6 6 -1 11 2 17 5 13 3 -3 4 -12 1 -19z m-70 -30 c-3 -7 -5
-2 -5 12 0 14 2 19 5 13 2 -7 2 -19 0 -25z m-191 2 c0 -12 -4 -16 -9 -11 -5 5
-6 14 -3 20 10 15 12 14 12 -9z m95 -47 c-12 -20 -14 -14 -5 12 4 9 9 14 11
11 3 -2 0 -13 -6 -23z m104 18 c3 -5 1 -12 -5 -16 -5 -3 -10 1 -10 9 0 18 6
21 15 7z m-797 -96 c1 -38 1 -39 -14 -20 -21 29 -29 66 -15 74 7 5 11 12 10
17 -1 5 0 14 1 19 4 17 18 -48 18 -90z m655 21 c-9 -20 -21 -36 -25 -36 -5 0
-4 9 2 20 6 11 7 20 3 20 -4 0 0 7 10 14 15 12 15 15 2 26 -12 10 -15 10 -15
0 0 -8 -3 -10 -6 -7 -4 4 -1 13 6 22 11 14 14 13 27 -4 11 -17 11 -25 -4 -55z
m67 44 c0 -5 -5 -10 -11 -10 -5 0 -7 5 -4 10 3 6 8 10 11 10 2 0 4 -4 4 -10z
m70 -9 c0 -6 -4 -13 -10 -16 -5 -3 -10 1 -10 9 0 9 5 16 10 16 6 0 10 -4 10
-9z m-438 -43 c-7 -7 -12 -8 -12 -2 0 14 12 26 19 19 2 -3 -1 -11 -7 -17z
m434 -41 c1 -28 0 -45 -3 -37 -2 8 -7 22 -10 30 -10 24 -10 34 0 48 5 6 10 12
11 12 0 0 2 -24 2 -53z m-102 -4 c9 -18 14 -33 12 -33 -6 0 -36 55 -36 66 0
11 5 3 24 -33z m43 15 c-3 -8 -6 -5 -6 6 -1 11 2 17 5 13 3 -3 4 -12 1 -19z
m33 -49 c0 -11 -4 -18 -10 -14 -5 3 -7 12 -3 20 7 21 13 19 13 -6z m63 -21
c-9 -20 -10 -20 -10 10 0 22 4 29 10 23 7 -7 7 -18 0 -33z m144 20 c-3 -8 -6
-5 -6 6 -1 11 2 17 5 13 3 -3 4 -12 1 -19z m-176 -40 c11 -21 11 -22 -4 -9
-10 7 -17 17 -17 22 0 15 9 10 21 -13z m-1232 -148 c11 -24 11 -24 -3 -6 -9
11 -16 24 -16 30 0 12 5 7 19 -24z m1499 -488 c2 -15 4 -42 4 -59 0 -18 3 -33
8 -33 5 0 2 -13 -6 -30 -11 -21 -23 -31 -42 -32 -15 -1 -36 -2 -47 -3 -36 -2
-46 5 -34 26 6 13 6 19 -1 19 -6 0 -8 15 -5 35 2 19 0 35 -4 35 -13 0 -21 27
-15 45 8 21 24 19 25 -2 0 -16 1 -16 8 1 4 10 22 26 41 36 30 15 36 16 48 3 8
-8 17 -27 20 -41z m352 48 c0 -5 -2 -10 -4 -10 -3 0 -8 5 -11 10 -3 6 -1 10 4
10 6 0 11 -4 11 -10z m-40 -20 c0 -5 -2 -10 -4 -10 -3 0 -8 5 -11 10 -3 6 -1
10 4 10 6 0 11 -4 11 -10z m-954 -25 c17 -13 16 -14 -13 -4 -34 11 -42 19 -20
19 7 0 22 -7 33 -15z m764 5 c0 -5 -5 -10 -11 -10 -5 0 -7 5 -4 10 3 6 8 10
11 10 2 0 4 -4 4 -10z m-930 -4 c0 -2 -8 -10 -17 -17 -16 -13 -17 -12 -4 4 13
16 21 21 21 13z m890 -36 c0 -5 -5 -10 -11 -10 -5 0 -7 5 -4 10 3 6 8 10 11
10 2 0 4 -4 4 -10z m-25 -30 c-3 -5 -11 -10 -16 -10 -6 0 -7 5 -4 10 3 6 11
10 16 10 6 0 7 -4 4 -10z m-2725 -54 c0 -10 -60 -70 -65 -65 -5 6 47 69 58 69
4 0 7 -2 7 -4z m1700 -29 c0 -2 -10 -12 -21 -23 -22 -19 -22 -19 -10 4 10 18
31 31 31 19z m-200 -157 c-27 -24 -27 -24 -36 -7 -4 6 -4 9 1 5 4 -4 14 -1 22
7 8 8 19 15 25 15 6 0 1 -9 -12 -20z"/>
<path d="M2070 2855 c0 -5 5 -17 10 -25 5 -8 10 -10 10 -5 0 6 -5 17 -10 25
-5 8 -10 11 -10 5z"/>
<path d="M2144 2545 c-10 -8 -14 -15 -8 -15 6 0 17 7 24 15 16 19 9 19 -16 0z"/>
<path d="M2154 2459 c-19 -22 -19 -22 4 -10 12 6 22 16 22 21 0 15 -5 12 -26
-11z"/>
<path d="M2099 2240 c-15 -12 -19 -19 -10 -20 7 0 11 -6 7 -15 -11 -31 10 -14
26 20 18 40 11 44 -23 15z"/>
<path d="M2035 1689 c-4 -6 -5 -12 -2 -15 2 -3 7 2 10 11 7 17 1 20 -8 4z"/>
<path d="M2430 1690 c-9 -6 -10 -10 -3 -10 6 0 18 -3 27 -6 11 -4 16 -1 16 10
0 18 -17 21 -40 6z"/>
<path d="M2475 1660 c-3 -5 -1 -10 4 -10 6 0 11 5 11 10 0 6 -2 10 -4 10 -3 0
-8 -4 -11 -10z"/>
<path d="M1990 1650 c0 -5 4 -10 9 -10 6 0 13 5 16 10 3 6 -1 10 -9 10 -9 0
-16 -4 -16 -10z"/>
<path d="M2311 1594 c0 -11 3 -14 6 -6 3 7 2 16 -1 19 -3 4 -6 -2 -5 -13z"/>
<path d="M2530 1510 c0 -5 5 -10 12 -10 6 0 3 -7 -8 -15 -10 -8 -14 -15 -8
-15 16 0 33 21 27 36 -6 16 -23 19 -23 4z"/>
<path d="M2446 1483 c-8 -19 29 -62 41 -49 4 4 0 12 -10 17 -9 6 -17 15 -17
21 0 6 8 4 18 -5 21 -19 32 -22 32 -7 0 6 -6 10 -14 10 -8 0 -16 7 -20 15 -7
20 -22 19 -30 -2z"/>
<path d="M2450 1930 c0 -5 5 -10 10 -10 6 0 10 5 10 10 0 6 -4 10 -10 10 -5 0
-10 -4 -10 -10z"/>
<path d="M2675 480 c-3 -5 -1 -10 4 -10 6 0 11 5 11 10 0 6 -2 10 -4 10 -3 0
-8 -4 -11 -10z"/>
<path d="M1210 2604 c0 -8 5 -12 10 -9 6 3 10 10 10 16 0 5 -4 9 -10 9 -5 0
-10 -7 -10 -16z"/>
<path d="M1211 2494 c0 -11 3 -14 6 -6 3 7 2 16 -1 19 -3 4 -6 -2 -5 -13z"/>
<path d="M1395 2238 c7 -18 53 -53 83 -62 31 -10 27 -1 -10 23 -18 11 -43 28
-56 37 -18 14 -21 14 -17 2z"/>
</g>
</svg>
